<mxfile host="app.diagrams.net" modified="2023-10-12T14:49:27.260Z" agent="Mozilla/5.0 (Windows NT 10.0; Win64; x64) AppleWebKit/537.36 (KHTML, like Gecko) Chrome/117.0.0.0 Safari/537.36" version="21.7.4" etag="UMGFZwxR6EFBy4fMOPOh" type="github">
  <diagram name="Page-1" id="szForv-g10A_Kh8ZD553">
    <mxGraphModel>
      <root>
        <mxCell id="0" />
        <mxCell id="1" parent="0" />
      </root>
    </mxGraphModel>
  </diagram>
</mxfile>
